{"title":"Maher Zain - The Chosen One - 2010 - 1080p HD.mp4","uid":5740460,"size":130422918,"categoryP":"video","categoryS":"music_videos","magnet":"?xt=urn:btih:09843793a5c2c881603e5ffe557f753bf201934f&amp;dn=Maher+Zain+-+The+Chosen+One+-+2010+-+1080p+HD.mp4&amp;tr=udp%3A%2F%2Ftracker.openbittorrent.com%3A80&amp;tr=udp%3A%2F%2Fopen.demonii.com%3A1337&amp;tr=udp%3A%2F%2Ftracker.coppersurfer.tk%3A6969&amp;tr=udp%3A%2F%2Fexodus.desync.com%3A6969","seeders":2,"leechers":0,"uploader":"x5452-EO","files":-1,"time":1281015621,"description":"The song - The Chosen One - is inspired by Muhammad, peace and blessings be upon him. Maher Zain and Awakening Records felt they had to respond after the recent attacks on prophet Muhammad through cartoons and facebook. The result is this music video. It's a small token in portraying the true character of our beloved Prophet Muhammad.\n\n\nGeneral\nComplete name                    : Maher Zain - The Chosen One - 2010 - 1080p HD.mp4\nFormat                           : MPEG-4\nFormat profile                   : Base Media / Version 2\nCodec ID                         : mp42\nFile size                        : 124 MiB\nDuration                         : 4mn 55s\nOverall bit rate                 : 3 535 Kbps\n\n\nVideo\nID                               : 1\nFormat                           : AVC\nFormat/Info                      : Advanced Video Codec\nFormat profile                   : &lt;a class=&quot;__cf_email__&quot; href=&quot;/cdn-cgi/l/email-protection&quot; data-cfemail=&quot;5d15343a351d1169736d&quot;&gt;[email&amp;#160;protected]&lt;/a&gt;&lt;script data-cfhash='f9e31' type=&quot;text/javascript&quot;&gt;\n/* &lt;![CDATA[ */!function(){try{var t=&quot;currentScript&quot;in document?document.currentScript:function(){for(var t=document.getElementsByTagName(&quot;script&quot;),e=t.length;e--;)if(t[e].getAttribute(&quot;data-cfhash&quot;))return t[e]}();if(t&amp;&amp;t.previousSibling){var e,r,n,i,c=t.previousSibling,a=c.getAttribute(&quot;data-cfemail&quot;);if(a){for(e=&quot;&quot;,r=parseInt(a.substr(0,2),16),n=2;a.length-n;n+=2)i=parseInt(a.substr(n,2),16)^r,e+=String.fromCharCode(i);e=document.createTextNode(e),c.parentNode.replaceChild(e,c)}t.parentNode.removeChild(t);}}catch(u){}}()/* ]]&gt; */&lt;/script&gt;\nFormat settings, CABAC           : No\nFormat settings, ReFrames        : 1 frame\nCodec ID                         : avc1\nCodec ID/Info                    : Advanced Video Coding\nDuration                         : 4mn 55s\nBit rate mode                    : Variable\nBit rate                         : 3 401 Kbps\nMaximum bit rate                 : 21.1 Mbps\nWidth                            : 1 920 pixels\nHeight                           : 1 080 pixels\nDisplay aspect ratio             : 16:9\nFrame rate mode                  : Variable\nFrame rate                       : 23.976 fps\nMinimum frame rate               : 17.241 fps\nMaximum frame rate               : 24.390 fps\nOriginal frame rate              : 24.000 fps\nResolution                       : 24 bits\nColorimetry                      : 4:2:0\nScan type                        : Progressive\nBits/(Pixel*Frame)               : 0.068\nStream size                      : 120 MiB (96%)\n\n\nAudio\nID                               : 2\nFormat                           : AAC\nFormat/Info                      : Advanced Audio Codec\nFormat version                   : Version 4\nFormat profile                   : LC\nFormat settings, SBR             : No\nCodec ID                         : 40\nDuration                         : 4mn 55s\nBit rate mode                    : Variable\nBit rate                         : 128 Kbps\nMaximum bit rate                 : 215 Kbps\nChannel(s)                       : 2 channels\nChannel positions                : L R\nSampling rate                    : 44.1 KHz\nResolution                       : 16 bits\nStream size                      : 4.50 MiB (4%)\n\n\n","torrent":{"xt":"urn:btih:09843793a5c2c881603e5ffe557f753bf201934f","amp;dn":"Maher+Zain+-+The+Chosen+One+-+2010+-+1080p+HD.mp4","amp;tr":["udp%3A%2F%2Ftracker.openbittorrent.com%3A80","udp%3A%2F%2Fopen.demonii.com%3A1337","udp%3A%2F%2Ftracker.coppersurfer.tk%3A6969","udp%3A%2F%2Fexodus.desync.com%3A6969"],"infoHash":"09843793a5c2c881603e5ffe557f753bf201934f","infoHashBuffer":{"type":"Buffer","data":[9,132,55,147,165,194,200,129,96,62,95,254,85,127,117,59,242,1,147,79]},"announce":[],"urlList":[]}}